# xmcd
#
# Track frame offsets:
#	150
#	12771
#	27135
#	38282
#	53681
#	65152
#	75629
#	91849
#	105210
#	115072
#	124926
#	142055
#
# Disc length: 2151 seconds
#
# Revision: 0
# Processed by: cddbd v1.5.2PL0 Copyright (c) Steve Scherf et al.
# Submitted via: dBpowerAMP V4.0
#
DISCID=8b08650c
DTITLE=Rhonda Vincent - Beautiful Star
DYEAR=2006
DGENRE=Bluegrass
TTITLE0=01_Christmas Time At Home
TTITLE1=02_The Christmas Song
TTITLE2=03_Rockin' Around The Christmas Tree
TTITLE3=04_Beautiful Star Of Bethlehem
TTITLE4=05_Christmas Time's A Comin'
TTITLE5=06_Let It Snow
TTITLE6=07_Silent Night
TTITLE7=08_Oh Christmas Tree
TTITLE8=09_Winter Wonderland
TTITLE9=10_Jingle Bells
TTITLE10=11_Away In A Manger
TTITLE11=12_Twelve Days Of Christmas
EXTD=A Christmas Collection
EXTT0=
EXTT1=
EXTT2=
EXTT3=
EXTT4=
EXTT5=
EXTT6=
EXTT7=
EXTT8=
EXTT9=
EXTT10=
EXTT11=
PLAYORDER=
